<?xml version="1.0" encoding="UTF-8" standalone="no"?>
<svg width="256" height="256" viewBox="0 0 256 256" fill="none" xmlns="http://www.w3.org/2000/svg">
  <rect width="256" height="256" rx="128" fill="#F87B6E" fill-opacity="0.6"/>
  <path d="M128 76C142.366 76 154 65.9116 154 53.5C154 41.0884 142.366 31 128 31C113.634 31 102 41.0884 102 53.5C102 65.9116 113.634 76 128 76Z" fill="#F87B6E"/>
  <path d="M128 76C142.366 76 154 65.9116 154 53.5C154 41.0884 142.366 31 128 31C113.634 31 102 41.0884 102 53.5C102 65.9116 113.634 76 128 76Z" stroke="#C0412F" stroke-width="2"/>
  <path d="M102 128C102 102.595 113.222 76 128 76C142.778 76 154 102.595 154 128C154 153.405 142.778 180 128 180C113.222 180 102 153.405 102 128Z" fill="#F87B6E"/>
  <path d="M102 128C102 102.595 113.222 76 128 76C142.778 76 154 102.595 154 128C154 153.405 142.778 180 128 180C113.222 180 102 153.405 102 128Z" stroke="#C0412F" stroke-width="2"/>
  <path d="M88 170C88 152.327 106.118 138 128.5 138C150.882 138 169 152.327 169 170C169 187.673 150.882 202 128.5 202C106.118 202 88 187.673 88 170Z" fill="#F87B6E"/>
  <path d="M88 170C88 152.327 106.118 138 128.5 138C150.882 138 169 152.327 169 170C169 187.673 150.882 202 128.5 202C106.118 202 88 187.673 88 170Z" stroke="#C0412F" stroke-width="2"/>
  <path d="M128 225L152 180H104L128 225Z" fill="#F87B6E"/>
  <path d="M128 225L152 180H104L128 225Z" stroke="#C0412F" stroke-width="2"/>
  <circle cx="128" cy="128" r="96" stroke="#C0412F" stroke-width="4" stroke-dasharray="8 8"/>
  <text x="128" y="240" text-anchor="middle" font-family="Arial" font-size="14" fill="#C0412F">クレー</text>
</svg>